<svg xmlns="http://www.w3.org/2000/svg" fill="none" viewBox="0 0 40 40"><path fill="url(#b)" d="M40 20c0 11.046-8.954 20-20 20S0 31.046 0 20 8.954 0 20 0s20 8.954 20 20Z"/><path fill="url(#c)" d="M40 20c0 11.046-8.954 20-20 20S0 31.046 0 20 8.954 0 20 0s20 8.954 20 20Z"/><path fill="#fff" fill-rule="evenodd" d="M19.945 10c-2.7 0-3.04.012-4.1.06-1.059.05-1.782.218-2.414.465a4.866 4.866 0 0 0-1.761 1.153 4.912 4.912 0 0 0-1.148 1.771c-.247.636-.415 1.363-.462 2.428C10.012 16.942 10 17.284 10 20s.012 3.056.06 4.122c.049 1.065.216 1.791.462 2.427.25.667.64 1.272 1.147 1.772a4.868 4.868 0 0 0 1.76 1.154c.634.247 1.357.416 2.415.465 1.06.048 1.4.06 4.1.06 2.7 0 3.039-.012 4.1-.06 1.058-.05 1.781-.218 2.414-.465a4.863 4.863 0 0 0 1.76-1.154c.506-.5.898-1.105 1.148-1.771.245-.637.413-1.363.462-2.428.048-1.066.06-1.406.06-4.122s-.012-3.057-.06-4.123c-.05-1.065-.217-1.792-.462-2.427a4.912 4.912 0 0 0-1.148-1.772 4.857 4.857 0 0 0-1.76-1.153c-.634-.247-1.357-.416-2.416-.465-1.06-.048-1.399-.06-4.1-.06h.003Zm-.892 1.802h.892c2.655 0 2.97.01 4.018.058.97.044 1.496.207 1.847.344.464.181.795.398 1.142.748.348.35.564.683.745 1.15.136.352.298.881.342 1.856.048 1.054.058 1.37.058 4.04 0 2.668-.01 2.985-.058 4.04-.044.974-.206 1.503-.342 1.855-.18.467-.396.8-.745 1.15-.348.35-.678.566-1.142.747-.35.138-.877.3-1.847.345-1.048.048-1.363.058-4.018.058s-2.97-.01-4.018-.058c-.97-.045-1.496-.208-1.847-.345a3.079 3.079 0 0 1-1.143-.748 3.101 3.101 0 0 1-.744-1.15c-.137-.351-.299-.88-.343-1.856-.048-1.054-.057-1.37-.057-4.04 0-2.671.01-2.986.057-4.04.044-.975.206-1.505.343-1.857.16-.434.413-.827.744-1.15.348-.35.68-.567 1.143-.748.35-.138.877-.3 1.847-.345.917-.042 1.273-.054 3.126-.056v.002Zm5.007 2.86c0-.663.534-1.2 1.193-1.2s1.194.538 1.194 1.2c0 .663-.535 1.2-1.194 1.2a1.197 1.197 0 0 1-1.193-1.2Zm-4.115.203c-2.82 0-5.107 2.299-5.107 5.135s2.287 5.134 5.107 5.134c2.82 0 5.106-2.298 5.106-5.134 0-2.836-2.286-5.135-5.106-5.135ZM23.26 20a3.323 3.323 0 0 0-3.315-3.333A3.324 3.324 0 0 0 16.63 20a3.323 3.323 0 0 0 3.315 3.333A3.324 3.324 0 0 0 23.26 20Z" clip-rule="evenodd"/><defs><radialGradient id="b" cx="0" cy="0" r="1" gradientTransform="rotate(-115.776 31.146 12.094) scale(54.5473 81.133)" gradientUnits="userSpaceOnUse"><stop offset=".244" stop-color="#FF1B90"/><stop offset=".437" stop-color="#F80261"/><stop offset=".688" stop-color="#ED00C0"/><stop offset=".777" stop-color="#C500E9"/><stop offset=".893" stop-color="#7017FF"/></radialGradient><radialGradient id="c" cx="0" cy="0" r="1" gradientTransform="matrix(12.71998 -19.91999 20.71966 13.2306 14.5 38.62)" gradientUnits="userSpaceOnUse"><stop stop-color="#FFD600"/><stop offset=".484" stop-color="#FF6930"/><stop offset=".734" stop-color="#FE3B36"/><stop offset="1" stop-color="#FE3B36" stop-opacity="0"/></radialGradient></defs></svg>
