<svg xmlns="http://www.w3.org/2000/svg" fill="none" viewBox="0 0 40 40"><circle cx="20" cy="20" r="19.5" fill="#0a66c2"/><path fill="#fff" d="M28.998 29h.004v-6.602c0-3.23-.695-5.717-4.47-5.717-1.816 0-3.034.996-3.53 1.94h-.053v-1.639h-3.58v12.017h3.727v-5.95c0-1.567.297-3.082 2.238-3.082 1.912 0 1.94 1.788 1.94 3.182V29h3.724ZM11.297 16.982h3.732V29h-3.732V16.982ZM13.162 11A2.162 2.162 0 0 0 11 13.162c0 1.193.968 2.181 2.162 2.181 1.193 0 2.161-.988 2.161-2.181A2.163 2.163 0 0 0 13.162 11Z"/></svg>
