<svg xmlns="http://www.w3.org/2000/svg" fill="none" viewBox="0 0 40 40"><circle cx="20" cy="20" r="19.5" fill="red"/><path fill="#fff" d="M19.745 13h.119c1.097.004 6.656.044 8.155.447a2.682 2.682 0 0 1 1.888 1.895c.135.508.23 1.179.294 1.871l.013.14.03.346.01.14a43.16 43.16 0 0 1 .099 2.611v.1a42.881 42.881 0 0 1-.11 2.75l-.01.14-.012.138c-.067.764-.166 1.522-.314 2.08a2.678 2.678 0 0 1-1.888 1.895c-1.549.416-7.433.446-8.248.447h-.19c-.412 0-2.118-.008-3.906-.07l-.227-.007-.117-.006-.228-.01-.228-.008c-1.481-.066-2.892-.171-3.542-.347a2.68 2.68 0 0 1-1.889-1.894c-.148-.557-.246-1.316-.313-2.08l-.01-.14-.012-.139A41.902 41.902 0 0 1 9 20.582v-.164a43.59 43.59 0 0 1 .085-2.373l.01-.138.004-.069.01-.139.03-.347.013-.139c.064-.692.159-1.365.294-1.87a2.679 2.679 0 0 1 1.888-1.896c.65-.173 2.061-.28 3.542-.347l.227-.01.23-.007.115-.004.228-.01c1.27-.04 2.54-.063 3.812-.068h.257V13Zm-2.203 4.284v6.43l5.548-3.213-5.548-3.217Z"/></svg>
