<svg xmlns="http://www.w3.org/2000/svg" width="98" height="98" viewBox="0 0 98 98" fill="none">
	<g clip-path="url(#clip0_603_3656)">
		<path fill-rule="evenodd" clip-rule="evenodd" d="M4.11238 22.1293C41.7465 17.7162 68.0451 45.4983 81.1349 78.3504C81.3608 78.9143 82.0019 79.1914 82.5657 78.9655C83.1296 78.7396 83.4066 78.0986 83.1807 77.5347C69.7263 43.7618 42.5429 15.4054 3.85446 19.9427C3.25159 20.0122 2.81991 20.5594 2.8901 21.165C2.95957 21.7679 3.50683 22.1995 4.11238 22.1293Z" fill="#029D50"/>
		<path fill-rule="evenodd" clip-rule="evenodd" d="M81.9122 77.3259C80.4046 76.1128 78.5295 74.5696 78.3116 74.4007C72.4066 69.8228 66.1079 66.4063 59.0919 63.792C58.5227 63.5791 57.8871 63.8703 57.6742 64.4395C57.4613 65.0087 57.7525 65.6442 58.3217 65.857C65.126 68.39 71.2355 71.7017 76.963 76.143C77.297 76.4017 81.5101 79.8735 82.4148 80.5116C82.7846 80.775 83.0757 80.8091 83.1452 80.8107C83.5136 80.8328 83.7614 80.6945 83.9302 80.5514C84.1196 80.3884 84.3667 80.0432 84.3925 79.4954C84.4172 78.922 84.1774 77.7259 84.1412 77.4191C83.6082 72.7886 82.6099 67.667 82.6506 62.7505C82.689 58.0618 83.6736 53.5542 87.0924 49.9163C87.509 49.4738 87.4858 48.7751 87.0433 48.3585C86.6008 47.9419 85.902 47.965 85.4855 48.4075C81.6641 52.4756 80.4905 57.4915 80.4472 62.731C80.4074 67.6186 81.3612 72.7031 81.9122 77.3259Z" fill="#029D50"/>
	</g>
	<defs>
		<clipPath id="clip0_603_3656">
			<rect width="79.7415" height="79.7415" fill="white" transform="translate(20.6387 97.663) rotate(-105)"/>
		</clipPath>
	</defs>
</svg>
