<svg xmlns="http://www.w3.org/2000/svg" width="70" height="70" viewBox="0 0 70 70" fill="none">
	<path d="M64.5312 4.70715H5.46875C5.32509 4.70707 5.18283 4.73531 5.05009 4.79024C4.91736 4.84518 4.79675 4.92574 4.69517 5.02732C4.59359 5.1289 4.51303 5.24951 4.45809 5.38225C4.40315 5.51498 4.37492 5.65725 4.375 5.8009V13.1837C4.37492 13.3274 4.40315 13.4696 4.45809 13.6024C4.51302 13.7351 4.59359 13.8557 4.69517 13.9573C4.79675 14.0589 4.91735 14.1394 5.05009 14.1944C5.18283 14.2493 5.32509 14.2775 5.46875 14.2775H8.25867V50.0978C8.25858 50.2414 8.28682 50.3837 8.34175 50.5164C8.39669 50.6492 8.47725 50.7698 8.57883 50.8714C8.68041 50.9729 8.80102 51.0535 8.93376 51.1084C9.06649 51.1634 9.20876 51.1916 9.35242 51.1915H33.2227V56.8182C32.2099 57.084 31.3287 57.7095 30.7437 58.5779C30.1586 59.4462 29.9099 60.4979 30.0439 61.5363C30.1779 62.5747 30.6855 63.5287 31.4718 64.2201C32.2581 64.9114 33.2693 65.2928 34.3163 65.2928C35.3634 65.2928 36.3745 64.9114 37.1609 64.2201C37.9472 63.5287 38.4548 62.5747 38.5888 61.5363C38.7228 60.4979 38.474 59.4462 37.889 58.5779C37.304 57.7095 36.4228 57.084 35.41 56.8182L35.4102 51.1915H60.6476C60.7912 51.1916 60.9335 51.1634 61.0662 51.1085C61.199 51.0535 61.3196 50.973 61.4212 50.8714C61.5228 50.7698 61.6033 50.6492 61.6582 50.5164C61.7132 50.3837 61.7414 50.2414 61.7413 50.0978V14.2775H64.5312C64.6749 14.2776 64.8172 14.2493 64.9499 14.1944C65.0826 14.1395 65.2033 14.0589 65.3048 13.9573C65.4064 13.8557 65.487 13.7351 65.5419 13.6024C65.5968 13.4696 65.6251 13.3274 65.625 13.1837V5.80091C65.6251 5.65726 65.5968 5.51499 65.5419 5.38225C65.487 5.24952 65.4064 5.12891 65.3048 5.02733C65.2033 4.92575 65.0826 4.84518 64.9499 4.79024C64.8172 4.73531 64.6749 4.70707 64.5312 4.70715ZM36.4452 60.9765C36.4369 61.5357 36.209 62.0692 35.8107 62.4617C35.4124 62.8542 34.8756 63.0742 34.3164 63.0742C33.7571 63.0742 33.2204 62.8541 32.8221 62.4616C32.4237 62.0691 32.1959 61.5356 32.1877 60.9764C32.1959 60.4173 32.4238 59.8838 32.8221 59.4913C33.2204 59.0988 33.7572 58.8788 34.3165 58.8788C34.8757 58.8788 35.4124 59.0988 35.8108 59.4914C36.2091 59.8839 36.437 60.4174 36.4452 60.9765ZM59.5538 49.004H10.4462V14.2775H59.5538V49.004ZM63.4375 12.09C60.9698 12.0898 9.03219 12.0901 6.5625 12.09V6.89465H63.4375V12.09Z" fill="#342663"/>
	<path d="M26.2381 44.8929C29.3878 44.8895 32.4076 43.6369 34.6348 41.4098C36.8621 39.1827 38.1151 36.163 38.1187 33.0133C38.1188 32.8697 38.0906 32.7274 38.0357 32.5947C37.9807 32.4619 37.9002 32.3413 37.7986 32.2397C37.697 32.1382 37.5764 32.0576 37.4437 32.0027C37.3109 31.9477 37.1686 31.9195 37.025 31.9196H27.3319V22.2264C27.3319 22.0828 27.3037 21.9405 27.2488 21.8078C27.1938 21.675 27.1133 21.5544 27.0117 21.4529C26.9101 21.3513 26.7895 21.2707 26.6568 21.2158C26.524 21.1608 26.3818 21.1326 26.2381 21.1327C10.4799 21.7845 10.4811 44.2428 26.2381 44.8929ZM25.1444 23.381V33.0133C25.1443 33.157 25.1725 33.2992 25.2274 33.432C25.2824 33.5647 25.3629 33.6853 25.4645 33.7869C25.5661 33.8885 25.6867 33.969 25.8194 34.024C25.9522 34.0789 26.0944 34.1071 26.2381 34.107H35.8704C35.5983 36.4719 34.4668 38.6544 32.6909 40.2397C30.915 41.825 28.6186 42.7024 26.2381 42.7054C14.0402 42.3094 13.1423 25.1102 25.1444 23.381Z" fill="#342663"/>
	<path d="M28.9238 31.3621H39.7096C39.8533 31.3622 39.9956 31.3339 40.1283 31.279C40.261 31.2241 40.3816 31.1435 40.4832 31.0419C40.5848 30.9404 40.6654 30.8197 40.7203 30.687C40.7752 30.5543 40.8035 30.412 40.8034 30.2683C40.8 27.1186 39.5473 24.0989 37.3203 21.8716C35.0932 19.6443 32.0735 18.3914 28.9238 18.3877C28.7802 18.3876 28.6379 18.4158 28.5052 18.4708C28.3724 18.5257 28.2518 18.6063 28.1502 18.7079C28.0487 18.8094 27.9681 18.9301 27.9132 19.0628C27.8582 19.1955 27.83 19.3378 27.8301 19.4814V30.2683C27.83 30.412 27.8582 30.5543 27.9132 30.687C27.9681 30.8197 28.0487 30.9404 28.1502 31.0419C28.2518 31.1435 28.3724 31.2241 28.5052 31.279C28.6379 31.3339 28.7802 31.3622 28.9238 31.3621ZM30.0176 20.6361C32.1954 20.8871 34.2242 21.8674 35.7742 23.4176C37.3242 24.9678 38.3043 26.9968 38.555 29.1746H30.0176V20.6361Z" fill="#342663"/>
	<path d="M45.1117 24.3242H54.5475C54.8376 24.3242 55.1158 24.209 55.3209 24.0039C55.526 23.7987 55.6412 23.5205 55.6412 23.2305C55.6412 22.9404 55.526 22.6622 55.3209 22.4571C55.1158 22.252 54.8376 22.1367 54.5475 22.1367H45.1117C44.8253 22.1423 44.5525 22.26 44.352 22.4645C44.1514 22.669 44.0391 22.944 44.0391 23.2305C44.0391 23.5169 44.1514 23.7919 44.352 23.9964C44.5525 24.2009 44.8253 24.3186 45.1117 24.3242Z" fill="#342663"/>
	<path d="M45.1117 31.3621H54.5475C54.8376 31.3621 55.1158 31.2468 55.3209 31.0417C55.526 30.8366 55.6412 30.5584 55.6412 30.2683C55.6412 29.9782 55.526 29.7 55.3209 29.4949C55.1158 29.2898 54.8376 29.1746 54.5475 29.1746H45.1117C44.8253 29.1801 44.5525 29.2978 44.352 29.5023C44.1514 29.7069 44.0391 29.9819 44.0391 30.2683C44.0391 30.5548 44.1514 30.8298 44.352 31.0343C44.5525 31.2388 44.8253 31.3565 45.1117 31.3621Z" fill="#342663"/>
	<path d="M45.1117 38.3987H54.5475C54.8376 38.3987 55.1158 38.2834 55.3209 38.0783C55.526 37.8732 55.6412 37.595 55.6412 37.3049C55.6412 37.0149 55.526 36.7367 55.3209 36.5315C55.1158 36.3264 54.8376 36.2112 54.5475 36.2112H45.1117C44.8253 36.2168 44.5525 36.3344 44.352 36.539C44.1514 36.7435 44.0391 37.0185 44.0391 37.3049C44.0391 37.5914 44.1514 37.8664 44.352 38.0709C44.5525 38.2754 44.8253 38.3931 45.1117 38.3987Z" fill="#342663"/>
</svg>
