<svg xmlns="http://www.w3.org/2000/svg" width="70" height="70" viewBox="0 0 70 70" fill="none">
	<path d="M66.7188 59.0625H65.625V5.46875C65.625 5.17867 65.5098 4.90047 65.3046 4.69535C65.0995 4.49023 64.8213 4.375 64.5312 4.375H52.5V3.28125C52.5 2.99117 52.3848 2.71297 52.1796 2.50785C51.9745 2.30273 51.6963 2.1875 51.4062 2.1875H38.2812C37.9912 2.1875 37.713 2.30273 37.5079 2.50785C37.3027 2.71297 37.1875 2.99117 37.1875 3.28125V8.75H27.3438C27.0537 8.75 26.7755 8.86523 26.5704 9.07035C26.3652 9.27547 26.25 9.55367 26.25 9.84375V10.1609L16.9531 7.66719C16.8159 7.63063 16.6728 7.62147 16.5321 7.64024C16.3913 7.659 16.2557 7.70533 16.1328 7.77656C15.8813 7.92378 15.697 8.16305 15.6187 8.44375L2.60313 57.0391C2.56495 57.1777 2.55448 57.3224 2.57231 57.4651C2.59014 57.6078 2.63592 57.7455 2.70703 57.8704C2.77814 57.9954 2.87318 58.1051 2.98673 58.1933C3.10027 58.2815 3.23009 58.3464 3.36875 58.3844L5.91719 59.0625H3.28125C2.99117 59.0625 2.71297 59.1777 2.50785 59.3829C2.30273 59.588 2.1875 59.8662 2.1875 60.1562V64.5312C2.1875 64.8213 2.30273 65.0995 2.50785 65.3046C2.71297 65.5098 2.99117 65.625 3.28125 65.625H66.7188C67.0088 65.625 67.287 65.5098 67.4921 65.3046C67.6973 65.0995 67.8125 64.8213 67.8125 64.5312V60.1562C67.8125 59.8662 67.6973 59.588 67.4921 59.3829C67.287 59.1777 67.0088 59.0625 66.7188 59.0625ZM52.5 6.5625H63.4375V12.0312H52.5V6.5625ZM52.5 14.2188H63.4375V51.4062H52.5V14.2188ZM52.5 53.5938H63.4375V59.0625H52.5V53.5938ZM39.375 4.375H50.3125V8.75H39.375V4.375ZM39.375 10.9375H50.3125V52.5H39.375V10.9375ZM39.375 54.6875H50.3125V59.0625H39.375V54.6875ZM28.4375 10.9375H37.1875V17.5H28.4375V10.9375ZM28.4375 19.6875H37.1875V45.9375H28.4375V19.6875ZM28.4375 48.125H37.1875V50.3125H28.4375V48.125ZM28.4375 52.5H37.1875V59.0625H28.4375V52.5ZM4.99844 56.5469L17.4453 10.0625L25.9 12.3266L13.4422 58.8219L4.99844 56.5469ZM26.25 19.4797V59.0625H15.6406L26.25 19.4797ZM65.625 63.4375H4.375V61.25H65.625V63.4375Z" fill="#342663"/>
	<path d="M42.6562 48.125H47.0312C47.3213 48.125 47.5995 48.0098 47.8046 47.8046C48.0098 47.5995 48.125 47.3213 48.125 47.0312V16.4062C48.125 16.1162 48.0098 15.838 47.8046 15.6329C47.5995 15.4277 47.3213 15.3125 47.0312 15.3125H42.6562C42.3662 15.3125 42.088 15.4277 41.8829 15.6329C41.6777 15.838 41.5625 16.1162 41.5625 16.4062V47.0312C41.5625 47.3213 41.6777 47.5995 41.8829 47.8046C42.088 48.0098 42.3662 48.125 42.6562 48.125ZM43.75 17.5H45.9375V45.9375H43.75V17.5Z" fill="#342663"/>
	<path d="M9.30176 53.1851L10.4347 48.9593L12.5476 49.5258L11.4146 53.7516L9.30176 53.1851Z" fill="#342663"/>
	<path d="M11.2803 45.7852L18.079 20.4277L20.1921 20.9942L13.3934 46.3517L11.2803 45.7852Z" fill="#342663"/>
	<path d="M18.9248 17.2561L19.7745 14.0868L21.8874 14.6533L21.0377 17.8226L18.9248 17.2561Z" fill="#342663"/>
</svg>
