<svg xmlns="http://www.w3.org/2000/svg" width="70" height="70" viewBox="0 0 70 70" fill="none">
	<g clip-path="url(#clip0_611_3718)">
		<path d="M22.1141 54.8811C23.4337 54.8811 23.4359 52.8303 22.1141 52.8303H19.6769L20.1359 50.0582C20.3513 48.7564 18.3285 48.4195 18.1126 49.7234L17.5982 52.8304H15.7542L16.2131 50.0583C16.4286 48.7564 14.4057 48.4196 14.1898 49.7235L13.6755 52.8306H10.2503C8.93068 52.8306 8.9285 54.8814 10.2503 54.8814H13.336L13.0271 56.7476H10.2503C8.93068 56.7476 8.9285 58.7984 10.2503 58.7984H12.6876L12.2286 61.5705C12.0133 62.8715 14.0347 63.217 14.2519 61.9053L14.7663 58.7982H16.6103L16.1513 61.5703C15.936 62.8713 17.9574 63.2168 18.1746 61.9051L18.689 58.7981H22.1142C23.4338 58.7981 23.436 56.7473 22.1142 56.7473H19.0285L19.3374 54.8811H22.1141ZM16.9498 56.7473H15.1057L15.4147 54.8811H17.2588L16.9498 56.7473Z" fill="#342663"/>
		<path d="M11.059 27.5833C11.0752 27.5833 11.0923 27.5832 11.1086 27.5832C14.0504 27.57 16.8111 26.4137 18.8821 24.3272C20.9536 22.2401 22.0871 19.4725 22.0741 16.534C22.0472 10.4847 17.1116 5.58252 11.0605 5.58252C11.0442 5.58252 11.0268 5.58266 11.0106 5.58266C8.06878 5.59578 5.30802 6.75201 3.23701 8.83848C1.16544 10.9256 0.0319096 13.6932 0.0450346 16.6317C0.0718315 22.6811 5.00765 27.5833 11.059 27.5833ZM4.69238 10.2833C6.37798 8.58514 8.62496 7.64396 11.0196 7.63344C11.0333 7.6333 11.0467 7.6333 11.0602 7.6333C15.9843 7.6333 20.0012 11.6218 20.0232 16.543C20.0339 18.9331 19.1117 21.1846 17.4265 22.8824C15.7409 24.5805 13.4939 25.5217 11.0994 25.5324C11.0859 25.5325 11.0726 25.5325 11.0591 25.5325C6.1349 25.5324 2.11769 21.5439 2.09582 16.6227C2.08502 14.2324 3.00732 11.9811 4.69238 10.2833Z" fill="#342663"/>
		<path d="M10.6045 22.245C10.9028 22.4011 11.2669 22.3995 11.5638 22.2408C14.8072 20.5054 16.9646 18.7678 16.9521 15.9283C16.9424 13.7364 15.4568 12.4334 13.989 12.1141C12.8844 11.8741 11.8164 12.1383 11.0297 12.7888C10.1976 12.1103 9.09401 11.8463 7.98782 12.1207C6.57333 12.4712 5.15063 13.8008 5.1602 15.9807C5.16622 17.3384 5.66757 18.5146 6.69296 19.5767C7.53022 20.4439 8.73663 21.2669 10.6045 22.245ZM8.48124 14.1112C9.16565 13.9408 9.8189 14.2699 10.1405 14.8854C10.5267 15.6244 11.6308 15.5972 11.9801 14.8404C12.3098 14.1273 13.0087 13.9999 13.5531 14.118C14.2016 14.259 14.8962 14.8111 14.9011 15.9375C14.908 17.4682 13.8954 18.6051 11.0748 20.1719C8.24048 18.6304 7.21768 17.5025 7.21085 15.9717C7.20593 14.8332 7.86382 14.2642 8.48124 14.1112Z" fill="#342663"/>
		<path d="M54.5998 53.0054C49.9084 53.0054 46.0918 56.8172 46.0918 61.5026C46.0918 66.1879 49.9084 70.0001 54.5998 70.0001C59.2912 70.0001 63.1078 66.1881 63.1078 61.5027C63.1078 56.8174 59.2912 53.0054 54.5998 53.0054ZM54.5998 67.9493C51.0392 67.9493 48.1426 65.0574 48.1426 61.5027C48.1426 57.9482 51.0394 55.0563 54.5998 55.0563C58.1602 55.0563 61.057 57.9482 61.057 61.5027C61.057 65.0574 58.1602 67.9493 54.5998 67.9493Z" fill="#342663"/>
		<path d="M57.7717 60.4772H55.6243V58.3343C55.6243 57.0147 53.5735 57.0125 53.5735 58.3343V60.4772H51.4261C50.1065 60.4772 50.1043 62.528 51.4261 62.528H53.5735V64.6711C53.5735 65.9907 55.6243 65.9929 55.6243 64.6711V62.528H57.7717C59.0913 62.528 59.0935 60.4772 57.7717 60.4772Z" fill="#342663"/>
		<path d="M54.3683 0C52.9791 0 51.6012 0.182793 50.2727 0.543184C48.9962 0.889355 49.5335 2.86986 50.8097 2.52246C51.9632 2.20938 53.1605 2.05078 54.3683 2.05078C61.8321 2.05078 67.9045 8.11385 67.9045 15.5661C67.9045 23.0184 61.8321 29.0814 54.3683 29.0814C46.9044 29.0814 40.8321 23.0184 40.8321 15.5661C40.8321 11.2816 42.8996 7.20713 46.3626 4.66662C47.4292 3.88445 46.2157 2.23043 45.1496 3.01314C41.1621 5.93838 38.7814 10.631 38.7814 15.566C38.7814 18.6439 39.6807 21.516 41.2305 23.9341H24.6023C21.6779 23.9341 19.2987 26.3147 19.2987 29.2406V42.6642C18.2819 42.4248 17.237 42.3016 16.1826 42.3016C8.72197 42.3016 2.65234 48.3632 2.65234 55.8139C2.65234 63.2647 8.72197 69.3262 16.1826 69.3262C18.36 69.3262 20.5244 68.7973 22.4418 67.7964C23.6145 67.1845 22.6651 65.3656 21.4929 65.9784C19.844 66.8391 18.0574 67.2755 16.1827 67.2755C9.85291 67.2755 4.70326 62.1339 4.70326 55.8139C4.70326 49.494 9.85291 44.3524 16.1827 44.3524C17.2445 44.3524 18.2942 44.4979 19.3051 44.7825C19.4332 47.5955 21.76 49.8448 24.6025 49.8448H25.9829C27.0822 51.6392 27.662 53.6912 27.662 55.8138C27.662 58.5691 26.6686 61.2321 24.8649 63.3123C24.0013 64.3081 25.5422 65.6616 26.4143 64.6557C28.5414 62.2028 29.7128 59.0626 29.7128 55.8138C29.7128 53.7236 29.2348 51.6914 28.3224 49.8448H36.2269V54.1373C36.2269 54.984 37.241 55.4704 37.9008 54.9317L44.132 49.8448H46.4841C49.4085 49.8448 51.7877 47.4642 51.7877 44.5383V30.9174C52.6274 31.0577 53.4893 31.132 54.3684 31.132C62.9631 31.132 69.9554 24.149 69.9554 15.5658C69.9554 6.98264 62.9631 0 54.3683 0ZM49.7368 44.5387C49.7368 46.334 48.2776 47.7944 46.484 47.7944H43.7664C43.53 47.7944 43.301 47.876 43.118 48.0255L38.2776 51.9769V48.8197C38.2776 48.2532 37.8185 47.7943 37.2522 47.7943H24.6023C22.8087 47.7943 21.3495 46.3337 21.3495 44.5386V29.2409C21.3495 27.4456 22.8087 25.9852 24.6023 25.9852H42.7982C44.6495 28.0335 47.0364 29.59 49.7369 30.431V44.5387H49.7368Z" fill="#342663"/>
		<path d="M54.0578 7.206C54.0578 8.23659 53.6816 9.22985 52.9993 10.002L51.0815 12.169C50.9068 12.0308 50.6864 11.9477 50.4463 11.9477H46.333C45.7667 11.9477 45.3076 12.4066 45.3076 12.9731V22.2148C45.3076 22.7813 45.7667 23.2402 46.333 23.2402H50.4463C50.7578 23.2402 51.0363 23.1008 51.2244 22.8816C52.0462 23.3333 52.976 23.5763 53.9212 23.5763H61.1905C62.447 23.5763 63.4851 22.4872 63.426 21.2332C63.4032 20.75 63.4286 14.1769 63.4286 14.0306C63.4286 12.7975 62.4247 11.7944 61.1937 11.7944H57.806H57.809C58.5559 10.0279 58.4602 7.94606 57.4804 6.29696C56.4198 4.51182 54.0578 5.38053 54.0578 7.206ZM49.4209 21.1893H47.3584V13.9983H49.4209V21.1893ZM61.1905 13.8452C61.2937 13.8452 61.3777 13.9283 61.3777 14.0306C61.3777 14.1758 61.3542 20.8356 61.3774 21.3299C61.3714 21.4485 61.309 21.5138 61.1905 21.5255H53.9212C52.9904 21.5255 52.1701 21.1467 51.4717 20.5574V14.8225L54.5356 11.3605C55.3511 10.4375 55.872 9.30286 56.045 8.09782C56.55 9.672 55.9133 10.9945 55.3167 12.4056C55.0391 13.0619 55.5414 13.8429 56.258 13.8451L61.1905 13.8452Z" fill="#342663"/>
		<path d="M40.7979 34.019C40.7979 34.5855 41.257 35.0444 41.8232 35.0444H44.4739C45.7967 35.0444 45.7967 32.9937 44.4739 32.9937H41.8232C41.257 32.9937 40.7979 33.4528 40.7979 34.019Z" fill="#342663"/>
		<path d="M26.6121 35.0444H35.9243C37.247 35.0444 37.247 32.9937 35.9243 32.9937H26.6121C25.2895 32.9937 25.2895 35.0444 26.6121 35.0444Z" fill="#342663"/>
		<path d="M29.2628 39.3867H26.6121C25.2895 39.3867 25.2895 41.4375 26.6121 41.4375H29.2628C30.5854 41.4375 30.5854 39.3867 29.2628 39.3867Z" fill="#342663"/>
		<path d="M44.4741 39.3867H35.1619C33.8393 39.3867 33.8393 41.4375 35.1619 41.4375H44.4741C45.7967 41.4375 45.7967 39.3867 44.4741 39.3867Z" fill="#342663"/>
	</g>
	<defs>
		<clipPath id="clip0_611_3718">
			<rect width="70" height="70" fill="white"/>
		</clipPath>
	</defs>
</svg>
