<svg xmlns="http://www.w3.org/2000/svg" width="333" height="84" viewBox="0 0 333 84" fill="none">
	<path fill-rule="evenodd" clip-rule="evenodd" d="M91.372 74.6167C75.218 74.369 62.3779 71.9249 49.5375 69.1804C7.42653 60.1678 -6.65754 46.1841 22.1988 32.4428C67.0711 11.1334 171.59 -2.81323 252.636 3.62317C270.585 5.0417 294.885 6.29196 312.696 13.2192C329.264 19.6601 328.574 27.3172 320.98 34.4061C313.248 41.6743 298.337 48.3638 286.463 52.6637C234.549 71.4246 130.583 88.4756 36.5585 79.4865C34.6255 79.3133 32.6923 79.6111 32.14 80.1517C31.5878 80.6923 32.555 81.2719 34.3499 81.4452C131.136 90.6964 238.415 73.2792 291.848 53.9716C306.621 48.6098 325.95 39.6593 331.473 30.3986C335.2 24.0691 332.578 17.599 318.218 11.9706C299.303 4.59163 273.484 3.14636 254.431 1.63569C170.761 -5.01219 62.654 9.34211 16.401 31.3506C-14.6644 46.12 0.246449 61.1642 45.5329 70.8515C59.3398 73.8292 73.4234 76.4026 90.9581 76.6708C92.891 76.7 94.5473 76.2635 94.5473 75.6966C94.6854 75.1297 93.1669 74.6459 91.372 74.6167Z" fill="#029D50"/>
</svg>
